<svg width="208" height="340" viewBox="0 0 208 340" fill="none" xmlns="http://www.w3.org/2000/svg">
    <path d="M93.0612 28.004L65.513 108.826C63.9013 113.554 69.4559 117.463 73.3622 114.349L96.3203 96.0484C99.9915 93.1221 105.204 93.1436 108.851 96.1001L131.149 114.176C135.036 117.327 140.628 113.448 139.038 108.703L112.008 28.0524C108.968 18.9807 96.148 18.9479 93.0612 28.004Z"
          fill="#48CAE4" stroke="black" stroke-width="10" class="header"/>
    <path d="M108.348 195.998L177.483 253.928C185.453 260.607 197.056 252.195 193.188 242.543L156.032 149.84C155.29 147.989 154.012 146.402 152.361 145.283L107.519 114.886C104.071 112.548 99.5347 112.593 96.1335 114.999L53.3673 145.25C51.7544 146.391 50.5156 147.984 49.8072 149.829L14.4766 241.811C10.7355 251.551 22.5394 259.792 30.394 252.924L95.3432 196.134C99.0525 192.891 104.572 192.833 108.348 195.998Z"
          fill="#48CAE4" stroke="black" stroke-width="10"/>
    <path d="M131.977 293.128L109.516 273.876C105.622 270.538 99.8341 270.687 96.1174 274.221L75.9067 293.438C72.0397 297.115 71.7408 303.18 75.2275 307.22L95.4743 330.675C99.3279 335.139 106.188 335.316 110.267 331.057L132.692 307.637C136.661 303.492 136.335 296.864 131.977 293.128Z"
          fill="#48CAE4" stroke="black" stroke-width="10" class="tail"/>
    <defs>
        <style>
            @keyframes colorAnim{
                0% {
                    fill: #7288FF
                }
                100% {
                    fill: #FF0099
                }
            }
            .header{
                    animation: colorAnim 0.5s ease-in-out infinite;
            }
        </style>
    </defs>
</svg>
