<svg width="315" height="354" viewBox="0 0 315 354" fill="none" xmlns="http://www.w3.org/2000/svg">
<path d="M149.061 28.004L121.513 108.826C119.901 113.554 125.456 117.463 129.362 114.349L152.32 96.0484C155.991 93.1221 161.204 93.1436 164.851 96.1001L187.149 114.176C191.036 117.327 196.628 113.448 195.038 108.703L168.008 28.0524C164.968 18.9807 152.148 18.9479 149.061 28.004Z" fill="#3A0CA3" stroke="black" stroke-width="10"/>
<path d="M162.348 209.998L231.483 267.928C239.453 274.607 251.056 266.195 247.188 256.543L210.032 163.84C209.29 161.989 208.012 160.402 206.361 159.283L161.519 128.886C158.071 126.548 153.535 126.593 150.134 128.999L107.367 159.25C105.754 160.391 104.516 161.984 103.807 163.829L68.4766 255.811C64.7355 265.551 76.5394 273.792 84.394 266.924L149.343 210.134C153.053 206.891 158.572 206.833 162.348 209.998Z" fill="#4CC9F0" stroke="black" stroke-width="10"/>
<path d="M79.0701 311.831L19.6554 159.42C15.6255 149.083 28.9181 140.851 36.3762 149.066L140.1 263.311C143.881 267.476 143.485 273.939 139.223 277.61L94.9134 315.775C89.6856 320.278 81.5761 318.259 79.0701 311.831Z" fill="#4361EE" stroke="black" stroke-width="10"/>
<path d="M235.93 311.831L295.345 159.42C299.374 149.083 286.082 140.851 278.624 149.066L174.9 263.311C171.119 267.476 171.515 273.939 175.777 277.61L220.087 315.775C225.314 320.278 233.424 318.259 235.93 311.831Z" fill="#4361EE" stroke="black" stroke-width="10"/>
<path d="M185.977 307.128L163.516 287.876C159.622 284.538 153.834 284.687 150.117 288.221L129.907 307.438C126.04 311.115 125.741 317.18 129.227 321.22L149.474 344.675C153.328 349.139 160.188 349.316 164.267 345.057L186.692 321.637C190.661 317.492 190.335 310.864 185.977 307.128Z" fill="#4CC9F0" stroke="black" stroke-width="10"/>
</svg>
